<svg width="175" height="56" viewBox="0 0 175 56" fill="none" xmlns="http://www.w3.org/2000/svg">
<g opacity="0.8">
<path fill-rule="evenodd" clip-rule="evenodd" d="M166.057 28.1009V25.8898C164.205 26.5323 164.677 27.1371 162.731 27.7985L163.978 17.4992C161.843 16.6488 161.805 16.97 161.049 19.4268C160.047 22.6394 155.115 27.3827 151.808 28.3087C152.715 26.6835 155.436 23.3386 153.206 21.1276C150.92 18.8787 147.972 21.789 146.97 22.6016L147.442 20.6929C144.249 20.4661 145.042 21.6756 142.812 23.5465C141.527 24.6237 140.507 26.23 138.504 26.4568C138.693 24.3969 139.675 21.7701 138.126 20.3717C136.708 19.0866 134.176 19.5213 132.532 20.5039C128.885 22.6394 130.283 25.115 128.11 26.778C127.354 27.3638 126.711 27.7607 125.729 28.0631C126.012 26.6268 126.617 25.6441 127.203 24.4725C131.814 15.1181 119.946 25.1717 119.436 25.3796C121.193 20.4661 127.637 10.3369 124.425 9.63769C122.63 9.24083 119.436 18.6519 119.039 19.748C118.132 22.3181 117.565 22.9796 116.034 24.3402C114.598 25.6252 113.842 27.0426 111.612 27.7418C112.103 25.0772 112.047 24.0189 112.292 21.3354C112.5 19.1244 113.88 17.8393 111.669 16.9889C109.609 17.0078 110.365 22.3559 104.469 25.8142L104.488 28.3276C107.077 27.0426 106.529 25.1906 109.458 24.3402C109.061 30.7466 107.228 27.9497 105.319 29.3103C105.716 31.5781 107.587 31.3702 110.837 30.5576C112.444 30.1607 114.881 28.5166 115.297 27.7796L114.995 30.8222C118.396 30.5765 119.077 28.2143 121.987 26.1733L123.896 24.6615C123.915 24.567 124.028 24.4347 124.16 24.4536L124.33 24.9071C123.423 26.3056 122.157 28.6111 122.573 30.8033C125.162 31.1812 127.392 30.1418 128.885 28.6867C129.338 29.0836 131.757 33.2411 136.142 30.0095C138.201 28.4977 138.428 29.3481 140.072 28.4221C141.414 27.6851 141.452 26.9103 143.096 26.1355C142.548 28.819 136.954 38.8159 140.318 39.2695C141.962 39.4774 142 37.4742 142.51 35.3576C142.983 33.43 143.417 31.956 144.173 30.1418C145.156 27.8174 146.838 25.4552 148.709 23.9622C148.898 23.8111 149.559 23.3575 149.786 23.3008C150.126 23.2063 150.145 23.2441 150.523 23.2819L151.033 23.452C151.298 24.8315 150.031 26.2678 149.313 27.3638C148.085 29.2347 148.35 28.4599 146.479 28.8757C146.384 28.8946 146.271 28.9324 146.195 28.9513C146.12 28.9702 145.987 29.0269 145.931 29.0458L145.515 30.3497C147.461 31.9749 153.244 30.4064 154.756 29.3292C156.816 27.8741 158.063 25.7386 160.501 24.2835C160.652 25.5308 160.482 26.967 159.877 27.9119C159.065 29.2347 158.12 28.7812 156.457 28.9513C156.513 30.7277 156.381 30.8599 158.195 31.0111C162.523 31.3324 164.243 29.0836 166.095 28.1387L166.057 28.1009ZM132.286 28.3465C131.549 25.1906 133.137 21.2032 136.123 22.7339C136.198 24.9449 135.707 23.2441 135.121 25.2284C134.705 26.7024 135.272 26.7213 134.856 28.0631C133.723 28.5355 133.628 28.5166 132.305 28.3465H132.286Z" fill="#235A1B"/>
<path d="M13.2857 43.4085C13.1156 43.5786 12.8133 43.5786 12.6432 43.4085C12.4731 43.2384 12.4731 42.9361 12.6432 42.766L13.8149 41.5943C13.9093 41.4998 14.0227 41.462 14.1361 41.462H20.0322L23.5283 37.9659C23.6984 37.7959 24.0008 37.7959 24.1709 37.9659C24.3409 38.136 24.3409 38.4384 24.1709 38.6085L20.5425 42.2368C20.4669 42.3124 20.3346 42.3691 20.2212 42.3691H14.3251L13.2857 43.4085Z" fill="#235A1B"/>
<path d="M17.5594 41.5944C17.7294 41.4243 18.0318 41.4243 18.2019 41.5944C18.372 41.7644 18.372 42.0668 18.2019 42.2369L16.6334 43.8054C16.4633 43.9755 16.1609 43.9755 15.9908 43.8054C15.8208 43.6353 15.8208 43.333 15.9908 43.1629L17.5594 41.5944Z" fill="#235A1B"/>
<path d="M11.8297 45.1473C12.0376 45.1473 12.2455 45.0529 12.3777 44.9206C12.51 44.7883 12.6045 44.5804 12.6045 44.3725C12.6045 44.1647 12.51 43.9568 12.3777 43.8245C12.2455 43.6922 12.0376 43.5977 11.8297 43.5977C11.6218 43.5977 11.414 43.6922 11.2817 43.8245C11.1494 43.9568 11.0549 44.1647 11.0549 44.3725C11.0549 44.5804 11.1494 44.7883 11.2817 44.9206C11.4329 45.0529 11.6218 45.1473 11.8297 45.1473ZM13.0392 45.5631C12.7368 45.8655 12.3022 46.0544 11.8297 46.0544C11.3573 46.0544 10.9415 45.8655 10.6202 45.5631C10.3179 45.2607 10.1289 44.8261 10.1289 44.3536C10.1289 43.8812 10.3179 43.4654 10.6202 43.1442C10.9226 42.8418 11.3573 42.6528 11.8297 42.6528C12.3022 42.6528 12.7179 42.8418 13.0392 43.1442C13.3415 43.4465 13.5305 43.8812 13.5305 44.3536C13.5305 44.8261 13.3415 45.2418 13.0392 45.5631Z" fill="#235A1B"/>
<path d="M19.3326 48.5677C19.1625 48.7378 18.8601 48.7378 18.6901 48.5677C18.52 48.3977 18.52 48.0953 18.6901 47.9252L23.5468 43.0685C23.7169 42.8984 24.0192 42.8984 24.1893 43.0685C24.3594 43.2386 24.3594 43.5409 24.1893 43.711L19.3326 48.5677Z" fill="#235A1B"/>
<path d="M24.3212 46.9992C24.3212 47.2638 24.1133 47.4906 23.8676 47.4906C23.6219 47.4906 23.4141 47.2638 23.4141 46.9992V32.4479C23.4141 32.1833 23.6219 31.9565 23.8676 31.9565C24.1133 31.9565 24.3212 32.1833 24.3212 32.4479V46.9992Z" fill="#235A1B"/>
<path d="M23.8499 49.4937C24.0578 49.4937 24.2656 49.3992 24.3979 49.2669C24.5302 49.1346 24.6247 48.9267 24.6247 48.7189C24.6247 48.511 24.5302 48.3031 24.3979 48.1708C24.2656 48.0386 24.0578 47.9441 23.8499 47.9441C23.642 47.9441 23.4341 48.0386 23.3018 48.1708C23.1696 48.3031 23.0751 48.511 23.0751 48.7189C23.0751 48.9267 23.1696 49.1346 23.3018 49.2669C23.4341 49.3992 23.642 49.4937 23.8499 49.4937ZM25.0593 49.9094C24.757 50.2118 24.3223 50.4008 23.8688 50.4008C23.3963 50.4008 22.9806 50.2118 22.6593 49.9094C22.3569 49.6071 22.168 49.1724 22.168 48.7C22.168 48.2275 22.3569 47.8118 22.6593 47.5094C22.9617 47.207 23.3963 47.0181 23.8499 47.0181C24.3223 47.0181 24.7381 47.207 25.0593 47.5094C25.3617 47.8118 25.5507 48.2464 25.5507 48.7189C25.5507 49.1913 25.3617 49.6071 25.0593 49.9094Z" fill="#235A1B"/>
<path d="M23.5299 41.6705C23.3598 41.5004 23.3598 41.198 23.5299 41.028C23.7 40.8579 24.0024 40.8579 24.1724 41.028L27.2528 44.1083H31.089C31.2213 44.1083 31.3347 44.165 31.4103 44.2406L32.2985 45.1288C32.4686 45.2989 32.4686 45.6012 32.2985 45.7713C32.1284 45.9414 31.8261 45.9414 31.656 45.7713L30.9001 45.0154H27.0638C26.9504 45.0154 26.837 44.9776 26.7425 44.8831L23.5299 41.6705Z" fill="#235A1B"/>
<path d="M29.692 44.9016C29.5219 45.0717 29.2195 45.0717 29.0494 44.9016C28.8794 44.7316 28.8794 44.4292 29.0494 44.2591L30.6935 42.6339C30.8636 42.4638 31.166 42.4638 31.3361 42.6339C31.5062 42.804 31.5062 43.1064 31.3361 43.2764L29.692 44.9205V44.9016Z" fill="#235A1B"/>
<path d="M33.1891 47.2826C33.397 47.2826 33.6048 47.1881 33.7371 47.0558C33.8694 46.9235 33.9639 46.7157 33.9639 46.5078C33.9639 46.2999 33.8694 46.092 33.7371 45.9597C33.6048 45.8086 33.397 45.733 33.1891 45.733C32.9812 45.733 32.7733 45.8275 32.641 45.9597C32.4899 46.092 32.4143 46.2999 32.4143 46.5078C32.4143 46.7157 32.5088 46.9235 32.641 47.0558C32.7733 47.1881 32.9812 47.2826 33.1891 47.2826ZM34.3985 47.6983C34.0962 48.0007 33.6615 48.1897 33.1891 48.1897C32.7166 48.1897 32.3009 48.0007 31.9796 47.6983C31.6773 47.396 31.4883 46.9613 31.4883 46.4889C31.4883 46.0164 31.6773 45.6007 31.9796 45.2794C32.282 44.9771 32.7166 44.7881 33.1891 44.7881C33.6615 44.7881 34.0773 44.9771 34.3985 45.2794C34.7009 45.5818 34.8899 46.0164 34.8899 46.4889C34.8899 46.9613 34.7009 47.3771 34.3985 47.6983Z" fill="#235A1B"/>
<path d="M41.3673 38.0608C41.613 38.0608 41.8209 38.2687 41.8209 38.5144C41.8209 38.7601 41.613 38.9679 41.3673 38.9679H26.6081C26.4759 38.9679 26.3625 38.9112 26.2869 38.8356L23.6979 36.2466C23.5278 36.0766 23.5278 35.7742 23.6979 35.6041C23.868 35.434 24.1703 35.434 24.3404 35.6041L26.7971 38.0608H41.3673Z" fill="#235A1B"/>
<path d="M30.9927 38.8354C30.8227 39.0055 30.5203 39.0055 30.3502 38.8354C30.1801 38.6653 30.1801 38.3629 30.3502 38.1928L32.4668 36.0763C32.6369 35.9062 32.9392 35.9062 33.1093 36.0763C33.2794 36.2464 33.2794 36.5487 33.1093 36.7188L30.9927 38.8354Z" fill="#235A1B"/>
<path d="M37.949 40.8959C38.1191 41.0659 38.1191 41.3683 37.949 41.5384C37.779 41.7085 37.4766 41.7085 37.3065 41.5384L34.6041 38.836C34.434 38.6659 34.434 38.3636 34.6041 38.1935C34.7742 38.0234 35.0766 38.0234 35.2466 38.1935L37.949 40.8959Z" fill="#235A1B"/>
<path d="M38.7444 43.0874C38.9523 43.0874 39.1602 42.9929 39.2924 42.8607C39.4247 42.7284 39.5192 42.5205 39.5192 42.3126C39.5192 42.1047 39.4247 41.8969 39.2924 41.7646C39.1602 41.6323 38.9523 41.5378 38.7444 41.5378C38.5365 41.5378 38.3287 41.6323 38.1964 41.7646C38.0641 41.8969 37.9696 42.1047 37.9696 42.3126C37.9696 42.5205 38.0641 42.7284 38.1964 42.8607C38.3287 42.9929 38.5365 43.0874 38.7444 43.0874ZM39.9539 43.5032C39.6515 43.8056 39.2169 43.9945 38.7633 43.9945C38.2909 43.9945 37.8751 43.8056 37.5538 43.5032C37.2515 43.2008 37.0625 42.7662 37.0625 42.2937C37.0625 41.8213 37.2515 41.4055 37.5538 41.1032C37.8562 40.8008 38.2909 40.6118 38.7444 40.6118C39.2169 40.6118 39.6326 40.8008 39.9539 41.1032C40.2562 41.4055 40.4452 41.8402 40.4452 42.3126C40.4452 42.7851 40.2562 43.2008 39.9539 43.5032Z" fill="#235A1B"/>
<path d="M20.2232 37.7958C20.0531 37.9658 19.7508 37.9658 19.5807 37.7958C19.4106 37.6257 19.4106 37.3233 19.5807 37.1532L23.5492 33.1847C23.7193 33.0146 24.0217 33.0146 24.1918 33.1847C24.3618 33.3548 24.3618 33.6571 24.1918 33.8272L20.2232 37.7958Z" fill="#235A1B"/>
<path d="M18.8414 39.4214C19.0493 39.4214 19.2572 39.3269 19.3895 39.1946C19.5218 39.0624 19.6162 38.8545 19.6162 38.6466C19.6162 38.4387 19.5218 38.2309 19.3895 38.0986C19.2572 37.9474 19.0493 37.8718 18.8414 37.8718C18.6336 37.8718 18.4257 37.9663 18.2934 38.0986C18.1422 38.2309 18.0666 38.4387 18.0666 38.6466C18.0666 38.8545 18.1611 39.0624 18.2934 39.1946C18.4257 39.3269 18.6336 39.4214 18.8414 39.4214ZM20.0509 39.8372C19.7485 40.1395 19.3139 40.3285 18.8414 40.3285C18.369 40.3285 17.9532 40.1395 17.632 39.8372C17.3296 39.5348 17.1406 39.1002 17.1406 38.6466C17.1406 38.1742 17.3296 37.7584 17.632 37.4371C17.9343 37.1348 18.369 36.9458 18.8414 36.9458C19.3139 36.9458 19.7296 37.1348 20.0509 37.4371C20.3533 37.7395 20.5422 38.1742 20.5422 38.6466C20.5422 39.1191 20.3533 39.5348 20.0509 39.8561V39.8372Z" fill="#235A1B"/>
<path d="M7.91852 37.5691C7.74844 37.7391 7.44608 37.7391 7.276 37.5691C7.10592 37.399 7.10592 37.0966 7.276 36.9265L9.27917 34.9234C9.37366 34.8289 9.48704 34.7911 9.60043 34.7911H17.3485L20.1643 31.9753V30.8036C20.1643 30.558 20.3722 30.3501 20.6179 30.3501C20.8635 30.3501 21.0714 30.558 21.0714 30.8036V32.1643C21.0714 32.2777 21.0336 32.3911 20.9391 32.4856L17.8588 35.5659C17.7832 35.6415 17.6698 35.6982 17.5375 35.6982H9.78941L7.91852 37.5691Z" fill="#235A1B"/>
<path d="M13.5904 37.229C13.4203 37.3991 13.118 37.3991 12.9479 37.229C12.7778 37.0589 12.7778 36.7566 12.9479 36.5865L14.6109 34.9235C14.781 34.7534 15.0833 34.7534 15.2534 34.9235C15.4235 35.0935 15.4235 35.3959 15.2534 35.566L13.5904 37.229Z" fill="#235A1B"/>
<path d="M6.6344 39.251C6.84227 39.251 7.05015 39.1565 7.18244 39.0242C7.33362 38.8919 7.40921 38.6841 7.40921 38.4762C7.40921 38.2683 7.31472 38.0604 7.18244 37.9282C7.05015 37.7959 6.84227 37.7014 6.6344 37.7014C6.42652 37.7014 6.21865 37.7959 6.08636 37.9282C5.95408 38.0604 5.85959 38.2683 5.85959 38.4762C5.85959 38.6841 5.95408 38.8919 6.08636 39.0242C6.21865 39.1565 6.42652 39.251 6.6344 39.251ZM7.84386 39.6668C7.54149 39.9691 7.10684 40.1581 6.6344 40.1581C6.16195 40.1581 5.7462 39.9691 5.42494 39.6668C5.12257 39.3644 4.93359 38.9297 4.93359 38.4762C4.93359 38.0038 5.12257 37.588 5.42494 37.2667C5.7273 36.9644 6.16195 36.7754 6.6155 36.7754C7.08795 36.7754 7.5037 36.9644 7.82496 37.2667C8.12733 37.5691 8.31631 38.0038 8.31631 38.4762C8.31631 38.9486 8.12733 39.3644 7.82496 39.6857L7.84386 39.6668Z" fill="#235A1B"/>
<path d="M35.3218 33.6769C35.5675 33.6769 35.7754 33.8847 35.7754 34.1304C35.7754 34.3761 35.5675 34.5839 35.3218 34.5839H29.18C29.0477 34.5839 28.9343 34.5273 28.8587 34.4517L26.8745 32.4674C26.78 32.3729 26.7422 32.2595 26.7422 32.1461V30.0107C26.7422 29.765 26.9501 29.5571 27.1957 29.5571C27.4414 29.5571 27.6493 29.765 27.6493 30.0107V31.9572L29.369 33.6769H35.3218Z" fill="#235A1B"/>
<path d="M36.9475 34.8858C37.1554 34.8858 37.3633 34.7913 37.4956 34.659C37.6279 34.5267 37.7223 34.3188 37.7223 34.111C37.7223 33.9031 37.6279 33.6952 37.4956 33.5629C37.3633 33.4306 37.1554 33.3361 36.9475 33.3361C36.7397 33.3361 36.5318 33.4306 36.3995 33.5629C36.2672 33.6952 36.1727 33.9031 36.1727 34.111C36.1727 34.3188 36.2672 34.5267 36.3995 34.659C36.5318 34.7913 36.7397 34.8858 36.9475 34.8858ZM38.157 35.3015C37.8546 35.6039 37.42 35.7929 36.9664 35.7929C36.494 35.7929 36.0782 35.6039 35.757 35.3015C35.4546 34.9992 35.2656 34.5645 35.2656 34.0921C35.2656 33.6196 35.4546 33.2039 35.757 32.9015C36.0593 32.5991 36.494 32.4102 36.9475 32.4102C37.42 32.4102 37.8357 32.5991 38.157 32.9015C38.4594 33.2039 38.6483 33.6385 38.6483 34.111C38.6483 34.5834 38.4594 34.9992 38.157 35.3015Z" fill="#235A1B"/>
<path d="M24.307 15.1946C24.6093 15.497 24.6282 15.9883 24.3259 16.3096C24.0235 16.6309 23.5322 16.6309 23.2298 16.3285L24.3259 15.1946H24.307ZM10.0013 11.604L9.73675 10.0544L10.2092 9.97882L10.6816 9.92213L11.1541 9.88433L11.6265 9.84653L12.099 9.82764H12.5714L13.0439 9.84653L13.5163 9.86543L13.9888 9.90323L14.4612 9.95992L14.9337 10.0355L15.4061 10.13L15.8785 10.2434L16.351 10.3568L16.8045 10.4891L17.2581 10.6402L17.7116 10.8103L18.1652 10.9993L18.6187 11.1883L19.0723 11.3962L19.5258 11.6229L19.9794 11.8686L20.4329 12.1332L20.8676 12.4166L21.3022 12.7001L21.7369 13.0025L22.1715 13.3237L22.6062 13.6639L23.0408 14.023L23.4755 14.4009L23.9101 14.7978L24.3448 15.1946L23.2487 16.3285L22.8518 15.9505L22.455 15.5915L22.0581 15.2513L21.6613 14.9112L21.2644 14.5899L20.8676 14.2875L20.4707 14.0041L20.055 13.7395L19.6581 13.4938L19.2613 13.2481L18.8455 13.0214L18.4297 12.8135L18.014 12.6245L17.5982 12.4544L17.1825 12.2844L16.7667 12.1332L16.351 12.0009L15.9352 11.8875L15.5195 11.7741L15.1037 11.6796L14.688 11.604L14.2722 11.5473L13.8565 11.4906L13.4407 11.4529L13.025 11.434L12.6092 11.4151H12.1935L11.7588 11.434L11.3242 11.4717L10.8895 11.5095L10.4549 11.5662L10.0202 11.6418L10.0013 11.604ZM10.0013 11.604C9.56667 11.6796 9.16981 11.3962 9.09422 10.9615C9.01863 10.5269 9.3021 10.13 9.73675 10.0544L10.0013 11.604Z" fill="#235A1B"/>
<path d="M24.3623 9.26032C24.6458 9.60048 24.5891 10.0918 24.2678 10.3564C23.9466 10.6399 23.4552 10.5832 23.1717 10.2619L24.3623 9.26032ZM17.3512 7.06817L17.5402 5.51855L17.767 5.55634L17.9937 5.59414L18.2205 5.63194L18.4473 5.68863L18.6741 5.74532L18.9008 5.80202L19.1276 5.87761L19.3544 5.9532L19.5812 6.02879L19.8079 6.10438L20.0347 6.19887L20.2615 6.29336L20.4883 6.38785L20.715 6.50124L20.9418 6.61462L21.1686 6.72801L21.3953 6.8414L21.6221 6.97368L21.8489 7.10597L22.0757 7.23825L22.2835 7.38943L22.4914 7.54062L22.6993 7.6918L22.9072 7.84298L23.1151 8.01306L23.304 8.18314L23.493 8.35322L23.682 8.5233L23.871 8.69338L24.041 8.88236L24.2111 9.07134L24.3812 9.26032L23.1906 10.2619L23.0584 10.1107L22.9261 9.95954L22.7749 9.80836L22.6237 9.65717L22.4725 9.50599L22.3024 9.35481L22.1324 9.22252L21.9623 9.09024L21.7922 8.95795L21.6032 8.82567L21.4142 8.69338L21.2253 8.5611L21.0363 8.44771L20.8473 8.33432L20.6583 8.22094L20.4694 8.10755L20.2804 8.01306L20.0914 7.91857L19.9024 7.82408L19.6945 7.72959L19.4867 7.654L19.2788 7.57841L19.0898 7.50282L18.9008 7.42723L18.7119 7.37054L18.5229 7.31384L18.3339 7.25715L18.1449 7.20045L17.9559 7.16266L17.767 7.12486L17.578 7.08707L17.4079 7.06817H17.3512ZM17.3512 7.06817C16.9166 7.01148 16.6142 6.63352 16.6709 6.19887C16.7276 5.76422 17.1055 5.46185 17.5402 5.51855L17.3512 7.06817Z" fill="#235A1B"/>
<path d="M24.2275 30.4453C23.8685 30.6721 23.3771 30.5587 23.1504 30.1997C22.9236 29.8406 23.037 29.3493 23.396 29.1225L24.2275 30.4453ZM5.46199 18.3696L4.85726 16.9145L6.10451 16.4421L7.35177 16.083L8.59903 15.8184L9.84628 15.6483L11.0746 15.5728H12.2841L13.4747 15.6483L14.6463 15.7995L15.7802 16.0263L16.8952 16.3287L17.9724 16.6877L19.0117 17.1035L19.9944 17.557L20.9393 18.0673L21.8275 18.6153L22.659 19.2011L23.4338 19.8248L24.1519 20.4862L24.7945 21.1665L25.3614 21.8657L25.8527 22.5838L26.2685 23.3209L26.5898 24.0768L26.8165 24.8516L26.9299 25.6264V26.4012L26.8165 27.176L26.5709 27.913L26.1929 28.6123L25.6827 29.2737L25.0401 29.8784L24.2842 30.4264L23.4527 29.1036L24.0574 28.6689L24.5299 28.2154L24.889 27.743L25.1535 27.2705L25.3236 26.7792L25.3992 26.2689V25.7398L25.3236 25.1917L25.1535 24.6059L24.9079 24.0201L24.5677 23.4154L24.1519 22.8106L23.6606 22.2059L23.0937 21.6201L22.47 21.0342L21.7708 20.4673L21.0149 19.9382L20.2023 19.4468L19.3519 18.9744L18.4448 18.5586L17.4999 18.1807L16.5172 17.8594L15.4967 17.5948L14.4574 17.3869L13.3802 17.2358L12.2841 17.1602H11.1691L10.0542 17.2358L8.92029 17.3869L7.78642 17.6326L6.65255 17.9728L5.51868 18.4074L5.46199 18.3696ZM5.46199 18.3696C5.06513 18.5397 4.61159 18.3507 4.44151 17.9539C4.27142 17.557 4.4604 17.1035 4.85726 16.9334L5.46199 18.3885V18.3696Z" fill="#235A1B"/>
<path d="M23.2254 15.1943L24.3214 16.3282C24.0191 16.6306 23.5088 16.6306 23.2254 16.3093C22.923 15.988 22.9419 15.4967 23.2443 15.1943H23.2254ZM37.4554 11.5848L37.0208 11.5093L36.5861 11.4526L36.1704 11.4148L35.7546 11.3959L35.3389 11.377H34.9231L34.5074 11.3959L34.0916 11.4148L33.6759 11.4526L33.2601 11.5093L32.8444 11.5848L32.4286 11.6604L32.0128 11.7549L31.5971 11.8683L31.1813 11.9817L30.7656 12.114L30.3498 12.2652L29.9341 12.4352L29.5183 12.6053L29.1215 12.7943L28.7246 13.0022L28.3278 13.229L27.9309 13.4746L27.5341 13.7203L27.1372 13.9849L26.7404 14.2683L26.3435 14.5707L25.9466 14.892L25.5498 15.2132L25.1529 15.5534L24.7561 15.9124L24.3592 16.2904L23.2632 15.1565L23.6789 14.7597L24.0947 14.3817L24.5293 14.0038L24.964 13.6447L25.3986 13.3045L25.8333 12.9833L26.2679 12.6809L26.7026 12.3975L27.1372 12.114L27.5719 11.8494L28.0254 11.6037L28.479 11.377L28.9325 11.1691L29.3861 10.9801L29.8396 10.7911L30.2931 10.6211L30.7467 10.4699L31.2002 10.3376L31.6538 10.2242L32.1073 10.1108L32.5798 10.0163L33.0522 9.94073L33.5247 9.88404L33.9971 9.84624L34.4696 9.80845L34.942 9.78955H35.4145L35.8869 9.80845L36.3593 9.84624L36.8318 9.88404L37.3042 9.94073L37.7767 10.0163L37.5121 11.5659L37.4554 11.5848ZM37.4554 11.5848L37.72 10.0352C38.1546 10.1108 38.4381 10.5077 38.3625 10.9423C38.2869 11.377 37.8901 11.6604 37.4554 11.5848Z" fill="#235A1B"/>
<path d="M23.187 9.26048L24.3775 10.2621C24.0941 10.6022 23.6216 10.64 23.2814 10.3566C22.9602 10.0731 22.9035 9.58174 23.187 9.26048ZM30.1981 7.06833L30.028 7.08723L29.839 7.12503L29.65 7.16282L29.461 7.20062L29.2721 7.25731L29.0831 7.314L28.8941 7.3707L28.7051 7.42739L28.5161 7.50298L28.3272 7.57857L28.1193 7.65416L27.9114 7.72976L27.7035 7.82424L27.5146 7.91873L27.3256 8.01322L27.1366 8.10771L26.9476 8.2211L26.7586 8.33449L26.5697 8.44787L26.3807 8.56126L26.1917 8.69354L26.0027 8.82583L25.8138 8.95811L25.6437 9.0904L25.4736 9.22268L25.3035 9.35497L25.1334 9.50615L24.9823 9.65733L24.8311 9.80852L24.6799 9.9597L24.5476 10.1109L24.4153 10.2621L23.2248 9.26048L23.3948 9.0715L23.5649 8.88252L23.735 8.69354L23.924 8.52346L24.113 8.35338L24.3019 8.1833L24.4909 8.01322L24.6988 7.84314L24.9067 7.69196L25.1145 7.54078L25.3224 7.38959L25.5303 7.23841L25.7571 7.10613L25.9838 6.97384L26.2106 6.84156L26.4374 6.72817L26.6642 6.61478L26.8909 6.5014L27.1177 6.38801L27.3445 6.29352L27.5713 6.19903L27.798 6.10454L28.0248 6.02895L28.2516 5.95336L28.4784 5.87777L28.7051 5.80218L28.9319 5.74548L29.1587 5.68879L29.3854 5.6321L29.6122 5.5943L29.839 5.55651L30.0658 5.51871L30.2547 7.06833H30.1981ZM30.1981 7.06833L30.0091 5.51871C30.4437 5.46202 30.8217 5.78328 30.8784 6.19903C30.9351 6.63368 30.6327 7.01164 30.1981 7.06833Z" fill="#235A1B"/>
<path d="M23.3215 30.4449L24.153 29.1221C24.512 29.3488 24.6254 29.8402 24.3987 30.1992C24.1719 30.5583 23.6805 30.6717 23.3215 30.4449ZM42.087 18.3692L40.9532 17.9345L39.8193 17.5944L38.6854 17.3487L37.5515 17.1975L36.4366 17.1219H35.3216L34.2255 17.1975L33.1483 17.3487L32.109 17.5566L31.0885 17.8212L30.1058 18.1424L29.1609 18.5204L28.2538 18.9361L27.4034 19.4086L26.5908 19.8999L25.8349 20.4291L25.1357 20.996L24.512 21.5818L23.9451 22.1677L23.4538 22.7724L23.038 23.3771L22.6978 23.9819L22.4522 24.5677L22.2821 25.1535L22.2065 25.7016V26.2307L22.2821 26.7409L22.4522 27.2323L22.7167 27.7047L23.0758 28.1772L23.5483 28.6307L24.153 29.0654L23.3215 30.3882L22.5656 29.8402L21.923 29.2354L21.4128 28.574L21.0348 27.8559L20.7892 27.1189L20.6758 26.3441V25.5693L20.7892 24.7945L21.0159 24.0196L21.3372 23.2637L21.7341 22.5267L22.2254 21.8086L22.7923 21.1094L23.4349 20.4291L24.1341 19.7676L24.9089 19.144L25.7404 18.5582L26.6286 18.0101L27.5735 17.4999L28.5562 17.0463L29.5956 16.6306L30.6727 16.2715L31.7877 15.9692L32.9216 15.7424L34.0932 15.5912L35.2838 15.5156H36.4933L37.7216 15.5912L38.9689 15.7613L40.2161 16.0259L41.4634 16.3849L42.7106 16.8574L42.1059 18.3125L42.087 18.3692ZM42.087 18.3692L42.6918 16.9141C43.0886 17.0841 43.2776 17.5377 43.1075 17.9345C42.9374 18.3314 42.4839 18.5204 42.087 18.3503V18.3692Z" fill="#235A1B"/>
<path d="M146.42 40.1375C146.253 40.1375 146.11 40.0779 145.991 39.9586C145.872 39.8394 145.812 39.6965 145.812 39.5299C145.812 39.3634 145.872 39.2205 145.991 39.1012C146.11 38.982 146.253 38.9223 146.42 38.9223C146.586 38.9223 146.729 38.982 146.848 39.1012C146.968 39.2205 147.027 39.3634 147.027 39.5299C147.027 39.6402 146.999 39.7415 146.943 39.8337C146.889 39.926 146.816 40.0003 146.724 40.0565C146.634 40.1105 146.532 40.1375 146.42 40.1375Z" fill="#235A1B"/>
<path d="M150.563 40.1915C150.077 40.1915 149.659 40.0768 149.308 39.8472C148.957 39.6177 148.686 39.3015 148.497 38.8987C148.308 38.4959 148.214 38.0357 148.214 37.5181C148.214 36.9915 148.311 36.5268 148.504 36.124C148.7 35.7189 148.972 35.4027 149.321 35.1754C149.672 34.9459 150.082 34.8311 150.55 34.8311C150.914 34.8311 151.243 34.8986 151.535 35.0337C151.828 35.1687 152.068 35.3577 152.254 35.6008C152.441 35.8438 152.557 36.1273 152.602 36.4514H151.805C151.745 36.2151 151.61 36.0058 151.4 35.8235C151.193 35.639 150.914 35.5468 150.563 35.5468C150.253 35.5468 149.98 35.6278 149.746 35.7898C149.515 35.9496 149.333 36.1757 149.203 36.4683C149.075 36.7586 149.011 37.0995 149.011 37.4911C149.011 37.8916 149.074 38.2405 149.2 38.5375C149.328 38.8346 149.508 39.0652 149.74 39.2295C149.974 39.3938 150.248 39.4759 150.563 39.4759C150.77 39.4759 150.958 39.4399 151.127 39.3679C151.296 39.2959 151.439 39.1924 151.556 39.0573C151.673 38.9223 151.756 38.7603 151.805 38.5713H152.602C152.557 38.8773 152.446 39.153 152.268 39.3983C152.092 39.6413 151.859 39.8349 151.569 39.9789C151.281 40.1206 150.946 40.1915 150.563 40.1915Z" fill="#235A1B"/>
<path d="M155.873 40.1915C155.405 40.1915 154.994 40.0801 154.641 39.8574C154.29 39.6346 154.015 39.3229 153.817 38.9223C153.622 38.5218 153.524 38.0537 153.524 37.5181C153.524 36.978 153.622 36.5065 153.817 36.1037C154.015 35.7009 154.29 35.3881 154.641 35.1653C154.994 34.9425 155.405 34.8311 155.873 34.8311C156.341 34.8311 156.751 34.9425 157.102 35.1653C157.455 35.3881 157.73 35.7009 157.925 36.1037C158.123 36.5065 158.222 36.978 158.222 37.5181C158.222 38.0537 158.123 38.5218 157.925 38.9223C157.73 39.3229 157.455 39.6346 157.102 39.8574C156.751 40.0801 156.341 40.1915 155.873 40.1915ZM155.873 39.4759C156.229 39.4759 156.521 39.3848 156.751 39.2025C156.98 39.0202 157.15 38.7805 157.26 38.4835C157.371 38.1864 157.426 37.8646 157.426 37.5181C157.426 37.1715 157.371 36.8486 157.26 36.5493C157.15 36.25 156.98 36.0081 156.751 35.8235C156.521 35.639 156.229 35.5468 155.873 35.5468C155.517 35.5468 155.225 35.639 154.995 35.8235C154.766 36.0081 154.596 36.25 154.486 36.5493C154.375 36.8486 154.32 37.1715 154.32 37.5181C154.32 37.8646 154.375 38.1864 154.486 38.4835C154.596 38.7805 154.766 39.0202 154.995 39.2025C155.225 39.3848 155.517 39.4759 155.873 39.4759Z" fill="#235A1B"/>
<path d="M159.438 40.0835V34.8986H160.208V35.7088H160.276C160.384 35.432 160.558 35.2171 160.799 35.064C161.04 34.9088 161.329 34.8311 161.666 34.8311C162.008 34.8311 162.293 34.9088 162.52 35.064C162.75 35.2171 162.929 35.432 163.057 35.7088H163.111C163.244 35.441 163.443 35.2283 163.709 35.0708C163.974 34.911 164.293 34.8311 164.664 34.8311C165.127 34.8311 165.507 34.9763 165.801 35.2666C166.096 35.5546 166.244 36.0036 166.244 36.6134V40.0835H165.447V36.6134C165.447 36.2309 165.342 35.9574 165.133 35.7932C164.924 35.6289 164.677 35.5468 164.394 35.5468C164.029 35.5468 163.747 35.657 163.547 35.8776C163.346 36.0958 163.246 36.3726 163.246 36.7079V40.0835H162.436V36.5324C162.436 36.2376 162.34 36.0002 162.149 35.8202C161.958 35.6379 161.711 35.5468 161.41 35.5468C161.203 35.5468 161.009 35.6019 160.829 35.7122C160.651 35.8224 160.507 35.9754 160.397 36.1712C160.289 36.3648 160.235 36.5887 160.235 36.843V40.0835H159.438Z" fill="#235A1B"/>
<path d="M47.2812 17.8201H49.9269V19.3508C50.9663 17.6122 52.5537 16.7429 54.6703 16.7429C56.7869 16.7429 58.5822 17.4611 60.0373 18.9162C61.4924 20.3713 62.2294 22.1099 62.2294 24.1131C62.2294 26.0974 61.4924 27.836 60.0373 29.2911C58.5822 30.7462 56.7869 31.4833 54.6703 31.4833C52.5537 31.4833 50.9663 30.614 49.9269 28.8376V35.7731H47.2812V17.8012V17.8201ZM49.9269 22.9981V25.247C50.097 26.1919 50.5506 27.0234 51.2876 27.7415C52.2514 28.6864 53.3663 29.1588 54.6703 29.1588C55.9742 29.1588 57.1081 28.6675 58.0719 27.7037C59.0357 26.7399 59.527 25.5493 59.527 24.132C59.527 22.6958 59.0357 21.5052 58.0719 20.5225C57.1081 19.5587 55.9742 19.0674 54.6703 19.0674C53.3663 19.0674 52.2136 19.5587 51.2309 20.5603C50.5317 21.2595 50.097 22.0721 49.9269 23.017V22.9981ZM79.1241 31.1431H76.4784V28.7998C75.439 30.5951 73.8516 31.4833 71.7161 31.4833C69.6185 31.4833 67.8232 30.7462 66.3681 29.2911C64.9129 27.836 64.1759 26.0974 64.1759 24.1131C64.1759 22.1099 64.9129 20.3713 66.3681 18.9162C67.8232 17.4611 69.6185 16.7241 71.7161 16.7241C73.8516 16.7241 75.439 17.6122 76.4784 19.3697V17.8012H79.1241V31.1431ZM76.4784 25.1714V23.0359C76.2894 22.0721 75.8548 21.2406 75.1555 20.5414C74.1729 19.5587 73.039 19.0485 71.735 19.0485C70.4311 19.0485 69.2783 19.5398 68.3334 20.5036C67.3696 21.4863 66.8972 22.6769 66.8972 24.1131C66.8972 25.5304 67.3696 26.721 68.3334 27.6848C69.2972 28.6486 70.4311 29.121 71.735 29.121C73.039 29.121 74.1918 28.6297 75.1555 27.647C75.8548 26.9478 76.2894 26.1163 76.4784 25.1525V25.1714ZM84.6611 10.1665V31.1431H82.0155V10.1665H84.6611ZM90.3494 20.1635V31.1431H87.7037V17.8201H89.3478C90.0659 17.3477 90.9541 17.102 92.0313 17.102C93.2786 17.102 94.299 17.4044 95.1117 18.028C95.9054 17.4044 96.9258 17.102 98.1542 17.102C99.4015 17.102 100.441 17.5367 101.291 18.3871C102.066 19.1808 102.463 20.1068 102.501 21.165V31.162H99.855V20.5981C99.7416 19.7855 99.1747 19.3886 98.1353 19.3886C97.2849 19.3886 96.6991 19.7666 96.3778 20.5225V31.162H93.7321V20.5981H93.7132C93.5998 19.7855 93.0329 19.3886 92.0124 19.3886C91.2943 19.3886 90.7274 19.6532 90.3116 20.1824L90.3494 20.1635Z" fill="#235A1B"/>
</g>
</svg>
