<svg width="97" height="121" viewBox="0 0 97 121" fill="none" xmlns="http://www.w3.org/2000/svg">
<path d="M25.5833 94.7133C25.256 95.0844 24.6742 95.0844 24.347 94.7133C24.0198 94.3422 24.0198 93.6825 24.347 93.3114L26.6014 90.7548C26.7832 90.5487 27.0013 90.4662 27.2195 90.4662H38.5641L45.2909 82.8379C45.6182 82.4668 46.1999 82.4668 46.5272 82.8379C46.8544 83.209 46.8544 83.8688 46.5272 84.2399L39.5459 92.1568C39.4004 92.3217 39.1459 92.4454 38.9277 92.4454H27.5831L25.5833 94.7133Z" fill="#F5F5F3"/>
<path d="M33.8064 90.7544C34.1336 90.3833 34.7154 90.3833 35.0426 90.7544C35.3699 91.1255 35.3699 91.7853 35.0426 92.1564L32.0247 95.5788C31.6974 95.9499 31.1157 95.9499 30.7884 95.5788C30.4612 95.2077 30.4612 94.5479 30.7884 94.1768L33.8064 90.7544Z" fill="#F5F5F3"/>
<path d="M22.7842 98.5059C23.1842 98.5059 23.5841 98.2997 23.8387 98.0111C24.0932 97.7224 24.275 97.2689 24.275 96.8153C24.275 96.3617 24.0932 95.9081 23.8387 95.6195C23.5841 95.3309 23.1842 95.1247 22.7842 95.1247C22.3842 95.1247 21.9843 95.3309 21.7297 95.6195C21.4752 95.9081 21.2934 96.3617 21.2934 96.8153C21.2934 97.2689 21.4752 97.7224 21.7297 98.0111C22.0206 98.2997 22.3842 98.5059 22.7842 98.5059ZM25.1113 99.413C24.5295 100.073 23.6932 100.485 22.7842 100.485C21.8752 100.485 21.0752 100.073 20.4571 99.413C19.8753 98.7533 19.5117 97.8049 19.5117 96.7741C19.5117 95.7432 19.8753 94.8361 20.4571 94.1351C21.0389 93.4753 21.8752 93.063 22.7842 93.063C23.6932 93.063 24.4932 93.4753 25.1113 94.1351C25.6931 94.7948 26.0567 95.7432 26.0567 96.7741C26.0567 97.8049 25.6931 98.7121 25.1113 99.413Z" fill="#F5F5F3"/>
<path d="M37.22 105.97C36.8927 106.341 36.311 106.341 35.9837 105.97C35.6565 105.599 35.6565 104.939 35.9837 104.568L45.3285 93.9707C45.6557 93.5996 46.2375 93.5996 46.5648 93.9707C46.892 94.3418 46.892 95.0016 46.5648 95.3727L37.22 105.97Z" fill="#F5F5F3"/>
<path d="M46.8195 102.547C46.8195 103.124 46.4196 103.619 45.9469 103.619C45.4742 103.619 45.0742 103.124 45.0742 102.547V70.7967C45.0742 70.2194 45.4742 69.7246 45.9469 69.7246C46.4196 69.7246 46.8195 70.2194 46.8195 70.7967V102.547Z" fill="#F5F5F3"/>
<path d="M45.9119 107.991C46.3119 107.991 46.7119 107.785 46.9664 107.496C47.2209 107.208 47.4027 106.754 47.4027 106.3C47.4027 105.847 47.2209 105.393 46.9664 105.105C46.7119 104.816 46.3119 104.61 45.9119 104.61C45.5119 104.61 45.112 104.816 44.8574 105.105C44.6029 105.393 44.4211 105.847 44.4211 106.3C44.4211 106.754 44.6029 107.208 44.8574 107.496C45.112 107.785 45.5119 107.991 45.9119 107.991ZM48.239 108.898C47.6572 109.558 46.8209 109.97 45.9483 109.97C45.0392 109.97 44.2393 109.558 43.6212 108.898C43.0394 108.238 42.6758 107.29 42.6758 106.259C42.6758 105.228 43.0394 104.321 43.6212 103.661C44.2029 103.002 45.0392 102.589 45.9119 102.589C46.8209 102.589 47.6209 103.002 48.239 103.661C48.8208 104.321 49.1844 105.27 49.1844 106.3C49.1844 107.331 48.8208 108.238 48.239 108.898Z" fill="#F5F5F3"/>
<path d="M45.2923 90.9195C44.9651 90.5484 44.9651 89.8887 45.2923 89.5176C45.6196 89.1465 46.2013 89.1465 46.5286 89.5176L52.4554 96.2387H59.8367C60.0912 96.2387 60.3094 96.3625 60.4548 96.5274L62.1638 98.4654C62.4911 98.8365 62.4911 99.4962 62.1638 99.8673C61.8366 100.238 61.2548 100.238 60.9275 99.8673L59.4731 98.218H52.0918C51.8736 98.218 51.6555 98.1355 51.4737 97.9293L45.2923 90.9195Z" fill="#F5F5F3"/>
<path d="M57.1536 97.9715C56.8263 98.3426 56.2446 98.3426 55.9173 97.9715C55.5901 97.6004 55.5901 96.9407 55.9173 96.5696L59.0807 93.0234C59.408 92.6523 59.9897 92.6523 60.317 93.0234C60.6442 93.3946 60.6442 94.0543 60.317 94.4254L57.1536 98.0128V97.9715Z" fill="#F5F5F3"/>
<path d="M63.874 103.166C64.274 103.166 64.674 102.959 64.9285 102.671C65.183 102.382 65.3648 101.929 65.3648 101.475C65.3648 101.021 65.183 100.568 64.9285 100.279C64.674 99.9493 64.274 99.7844 63.874 99.7844C63.4741 99.7844 63.0741 99.9905 62.8196 100.279C62.5287 100.568 62.3832 101.021 62.3832 101.475C62.3832 101.929 62.5651 102.382 62.8196 102.671C63.0741 102.959 63.4741 103.166 63.874 103.166ZM66.2012 104.073C65.6194 104.732 64.7831 105.145 63.874 105.145C62.965 105.145 62.1651 104.732 61.5469 104.073C60.9652 103.413 60.6016 102.465 60.6016 101.434C60.6016 100.403 60.9652 99.4957 61.5469 98.7947C62.1287 98.135 62.965 97.7227 63.874 97.7227C64.7831 97.7227 65.583 98.135 66.2012 98.7947C66.7829 99.4545 67.1465 100.403 67.1465 101.434C67.1465 102.465 66.7829 103.372 66.2012 104.073Z" fill="#F5F5F3"/>
<path d="M79.6179 83.044C80.0906 83.044 80.4906 83.4976 80.4906 84.0336C80.4906 84.5697 80.0906 85.0233 79.6179 85.0233H51.22C50.9655 85.0233 50.7473 84.8996 50.6019 84.7346L45.6204 79.0856C45.2932 78.7145 45.2932 78.0547 45.6204 77.6836C45.9477 77.3125 46.5295 77.3125 46.8567 77.6836L51.5836 83.044H79.6179Z" fill="#F5F5F3"/>
<path d="M59.6614 84.735C59.3341 85.1061 58.7524 85.1061 58.4251 84.735C58.0979 84.3639 58.0979 83.7042 58.4251 83.3331L62.4976 78.7149C62.8248 78.3437 63.4066 78.3437 63.7338 78.7149C64.0611 79.086 64.0611 79.7457 63.7338 80.1168L59.6614 84.735Z" fill="#F5F5F3"/>
<path d="M73.0329 89.229C73.3601 89.6001 73.3601 90.2599 73.0329 90.631C72.7056 91.0021 72.1239 91.0021 71.7966 90.631L66.597 84.7345C66.2698 84.3634 66.2698 83.7036 66.597 83.3325C66.9242 82.9614 67.506 82.9614 67.8333 83.3325L73.0329 89.229Z" fill="#F5F5F3"/>
<path d="M74.5642 94.013C74.9642 94.013 75.3642 93.8068 75.6187 93.5182C75.8732 93.2295 76.055 92.776 76.055 92.3224C76.055 91.8688 75.8732 91.4152 75.6187 91.1266C75.3642 90.838 74.9642 90.6318 74.5642 90.6318C74.1643 90.6318 73.7643 90.838 73.5098 91.1266C73.2553 91.4152 73.0734 91.8688 73.0734 92.3224C73.0734 92.776 73.2553 93.2295 73.5098 93.5182C73.7643 93.8068 74.1643 94.013 74.5642 94.013ZM76.8913 94.9201C76.3096 95.5799 75.4733 95.9922 74.6006 95.9922C73.6916 95.9922 72.8916 95.5799 72.2735 94.9201C71.6917 94.2604 71.3281 93.312 71.3281 92.2812C71.3281 91.2503 71.6917 90.3432 72.2735 89.6834C72.8553 89.0237 73.6916 88.6113 74.5642 88.6113C75.4733 88.6113 76.2732 89.0237 76.8913 89.6834C77.4731 90.3432 77.8367 91.2915 77.8367 92.3224C77.8367 93.3532 77.4731 94.2604 76.8913 94.9201Z" fill="#F5F5F3"/>
<path d="M38.9309 82.4659C38.6037 82.837 38.0219 82.837 37.6947 82.4659C37.3674 82.0948 37.3674 81.4351 37.6947 81.064L45.3305 72.4048C45.6577 72.0337 46.2395 72.0337 46.5667 72.4048C46.894 72.7759 46.894 73.4356 46.5667 73.8068L38.9309 82.4659Z" fill="#F5F5F3"/>
<path d="M36.2764 86.012C36.6764 86.012 37.0763 85.8058 37.3309 85.5172C37.5854 85.2286 37.7672 84.775 37.7672 84.3214C37.7672 83.8679 37.5854 83.4143 37.3309 83.1256C37.0763 82.7958 36.6764 82.6308 36.2764 82.6308C35.8764 82.6308 35.4765 82.837 35.2219 83.1256C34.931 83.4143 34.7856 83.8679 34.7856 84.3214C34.7856 84.775 34.9674 85.2286 35.2219 85.5172C35.4765 85.8058 35.8764 86.012 36.2764 86.012ZM38.6035 86.9192C38.0217 87.5789 37.1854 87.9913 36.2764 87.9913C35.3674 87.9913 34.5674 87.5789 33.9493 86.9192C33.3675 86.2594 33.0039 85.311 33.0039 84.3214C33.0039 83.2906 33.3675 82.3834 33.9493 81.6824C34.5311 81.0227 35.3674 80.6104 36.2764 80.6104C37.1854 80.6104 37.9854 81.0227 38.6035 81.6824C39.1853 82.3422 39.5489 83.2906 39.5489 84.3214C39.5489 85.3523 39.1853 86.2594 38.6035 86.9604V86.9192Z" fill="#F5F5F3"/>
<path d="M15.2591 81.9716C14.9318 82.3427 14.35 82.3427 14.0228 81.9716C13.6955 81.6005 13.6955 80.9408 14.0228 80.5697L17.877 76.1989C18.0588 75.9927 18.277 75.9102 18.4952 75.9102H33.4032L38.821 69.7663V67.2098C38.821 66.6738 39.2209 66.2202 39.6936 66.2202C40.1663 66.2202 40.5663 66.6738 40.5663 67.2098V70.1787C40.5663 70.4261 40.4936 70.6735 40.3118 70.8797L34.3849 77.6008C34.2395 77.7658 34.0213 77.8895 33.7668 77.8895H18.8588L15.2591 81.9716Z" fill="#F5F5F3"/>
<path d="M26.1692 81.2298C25.842 81.6009 25.2602 81.6009 24.9329 81.2298C24.6057 80.8587 24.6057 80.1989 24.9329 79.8278L28.1327 76.1992C28.46 75.8281 29.0417 75.8281 29.369 76.1992C29.6962 76.5703 29.6962 77.2301 29.369 77.6012L26.1692 81.2298Z" fill="#F5F5F3"/>
<path d="M12.792 85.6404C13.192 85.6404 13.592 85.4343 13.8465 85.1456C14.1374 84.857 14.2828 84.4034 14.2828 83.9498C14.2828 83.4963 14.101 83.0427 13.8465 82.7541C13.592 82.4654 13.192 82.2592 12.792 82.2592C12.392 82.2592 11.9921 82.4654 11.7376 82.7541C11.483 83.0427 11.3012 83.4963 11.3012 83.9498C11.3012 84.4034 11.483 84.857 11.7376 85.1456C11.9921 85.4343 12.392 85.6404 12.792 85.6404ZM15.1191 86.5476C14.5373 87.2073 13.701 87.6197 12.792 87.6197C11.883 87.6197 11.0831 87.2073 10.4649 86.5476C9.88314 85.8878 9.51953 84.9395 9.51953 83.9498C9.51953 82.919 9.88314 82.0118 10.4649 81.3109C11.0467 80.6511 11.883 80.2388 12.7557 80.2388C13.6647 80.2388 14.4646 80.6511 15.0828 81.3109C15.6645 81.9706 16.0281 82.919 16.0281 83.9498C16.0281 84.9807 15.6645 85.8878 15.0828 86.5888L15.1191 86.5476Z" fill="#F5F5F3"/>
<path d="M67.9844 73.4783C68.4571 73.4783 68.8571 73.9319 68.8571 74.4679C68.8571 75.0039 68.4571 75.4575 67.9844 75.4575H56.1671C55.9126 75.4575 55.6944 75.3338 55.549 75.1689L51.7311 70.8393C51.5493 70.6331 51.4766 70.3857 51.4766 70.1383V65.4789C51.4766 64.9428 51.8765 64.4893 52.3492 64.4893C52.8219 64.4893 53.2219 64.9428 53.2219 65.4789V69.726L56.5307 73.4783H67.9844Z" fill="#F5F5F3"/>
<path d="M71.115 76.1165C71.515 76.1165 71.915 75.9103 72.1695 75.6217C72.424 75.3331 72.6058 74.8795 72.6058 74.4259C72.6058 73.9723 72.424 73.5188 72.1695 73.2301C71.915 72.9415 71.515 72.7353 71.115 72.7353C70.7151 72.7353 70.3151 72.9415 70.0606 73.2301C69.806 73.5188 69.6242 73.9723 69.6242 74.4259C69.6242 74.8795 69.806 75.3331 70.0606 75.6217C70.3151 75.9103 70.7151 76.1165 71.115 76.1165ZM73.4421 77.0237C72.8604 77.6834 72.0241 78.0957 71.1514 78.0957C70.2424 78.0957 69.4424 77.6834 68.8243 77.0237C68.2425 76.3639 67.8789 75.4155 67.8789 74.3847C67.8789 73.3538 68.2425 72.4467 68.8243 71.7869C69.4061 71.1272 70.2424 70.7148 71.115 70.7148C72.0241 70.7148 72.824 71.1272 73.4421 71.7869C74.0239 72.4467 74.3875 73.3951 74.3875 74.4259C74.3875 75.4568 74.0239 76.3639 73.4421 77.0237Z" fill="#F5F5F3"/>
<path d="M46.7862 33.1519C47.368 33.8116 47.4044 34.8837 46.8226 35.5847C46.2408 36.2857 45.2954 36.2857 44.7136 35.6259L46.8226 33.1519H46.7862ZM19.261 25.3174L18.7519 21.9362L19.6609 21.7713L20.57 21.6476L21.479 21.5651L22.388 21.4826L23.297 21.4414H24.2061L25.1151 21.4826L26.0241 21.5239L26.9331 21.6063L27.8422 21.73L28.7512 21.895L29.6602 22.1012L30.5692 22.3486L31.4783 22.596L32.3509 22.8846L33.2236 23.2145L34.0962 23.5856L34.9689 23.9979L35.8416 24.4103L36.7142 24.8638L37.5869 25.3586L38.4596 25.8947L39.3322 26.472L40.1685 27.0905L41.0048 27.709L41.8411 28.3687L42.6774 29.0697L43.5137 29.8119L44.35 30.5954L45.1863 31.4201L46.0226 32.286L46.8589 33.1519L44.75 35.6259L43.9864 34.8012L43.2228 34.0178L42.4593 33.2756L41.6957 32.5334L40.9321 31.8324L40.1685 31.1727L39.4049 30.5541L38.605 29.9769L37.8414 29.4408L37.0778 28.9048L36.2779 28.41L35.478 27.9564L34.678 27.5441L33.8781 27.1729L33.0781 26.8018L32.2782 26.472L31.4783 26.1833L30.6783 25.9359L29.8784 25.6885L29.0784 25.4823L28.2785 25.3174L27.4785 25.1937L26.6786 25.07L25.8787 24.9875L25.0787 24.9463L24.2788 24.9051H23.4788L22.6425 24.9463L21.8062 25.0288L20.9699 25.1112L20.1336 25.2349L19.2973 25.3999L19.261 25.3174ZM19.261 25.3174C18.4247 25.4823 17.6611 24.8638 17.5156 23.9155C17.3702 22.9671 17.9156 22.1012 18.7519 21.9362L19.261 25.3174Z" fill="#F5F5F3"/>
<path d="M46.898 20.2032C47.4434 20.9454 47.3343 22.0175 46.7162 22.5948C46.0981 23.2133 45.1527 23.0896 44.6073 22.3886L46.898 20.2032ZM33.4081 15.42L33.7717 12.0388L34.208 12.1213L34.6443 12.2038L35.0807 12.2862L35.517 12.4099L35.9533 12.5336L36.3897 12.6573L36.826 12.8223L37.2623 12.9872L37.6987 13.1521L38.135 13.3171L38.5713 13.5233L39.0077 13.7294L39.444 13.9356L39.8803 14.183L40.3167 14.4304L40.753 14.6778L41.1893 14.9252L41.6257 15.2139L42.062 15.5025L42.4983 15.7911L42.8983 16.121L43.2983 16.4509L43.6982 16.7807L44.0982 17.1106L44.4982 17.4817L44.8618 17.8528L45.2254 18.2239L45.589 18.595L45.9526 18.9662L46.2799 19.3785L46.6071 19.7908L46.9344 20.2032L44.6436 22.3886L44.3891 22.0587L44.1346 21.7288L43.8437 21.399L43.5528 21.0691L43.2619 20.7392L42.9346 20.4093L42.6074 20.1207L42.2801 19.8321L41.9529 19.5434L41.5893 19.2548L41.2257 18.9662L40.8621 18.6775L40.4985 18.4301L40.1349 18.1827L39.7712 17.9353L39.4076 17.6879L39.044 17.4817L38.6804 17.2756L38.3168 17.0694L37.9168 16.8632L37.5169 16.6983L37.1169 16.5333L36.7533 16.3684L36.3897 16.2035L36.0261 16.0798L35.6625 15.9561L35.2988 15.8324L34.9352 15.7087L34.5716 15.6262L34.208 15.5437L33.8444 15.4613L33.5172 15.42H33.4081ZM33.4081 15.42C32.5718 15.2963 31.99 14.4716 32.0991 13.5233C32.2082 12.5749 32.9354 11.9151 33.7717 12.0388L33.4081 15.42Z" fill="#F5F5F3"/>
<path d="M46.6357 66.4258C45.9448 66.9207 44.9995 66.6732 44.5631 65.8898C44.1268 65.1063 44.345 64.0343 45.0358 63.5395L46.6357 66.4258ZM10.5293 40.0773L9.3657 36.9022L11.7655 35.8714L14.1653 35.0879L16.5652 34.5107L18.965 34.1395L21.3285 33.9746H23.6556L25.9463 34.1395L28.2007 34.4694L30.3823 34.9642L32.5276 35.624L34.6002 36.4074L36.6001 37.3146L38.4908 38.3042L40.3089 39.4175L42.0179 40.6133L43.6177 41.8916L45.1085 43.2523L46.4903 44.6955L47.7265 46.1799L48.8174 47.7056L49.7627 49.2725L50.5627 50.8806L51.1808 52.5299L51.6172 54.2205L51.8353 55.9111V57.6017L51.6172 59.2923L51.1445 60.9005L50.4172 62.4261L49.4355 63.8693L48.1992 65.1888L46.7448 66.3846L45.1449 63.4982L46.3084 62.5498L47.2175 61.5602L47.9083 60.5294L48.4174 59.4985L48.7446 58.4264L48.8901 57.3131V56.1585L48.7446 54.9628L48.4174 53.6845L47.9447 52.4062L47.2902 51.0868L46.4903 49.7673L45.5449 48.4478L44.454 47.1695L43.2541 45.8913L41.9088 44.6542L40.4543 43.4997L38.8908 42.4276L37.2546 41.3967L35.5092 40.4896L33.6912 39.6649L31.8004 38.9639L29.8369 38.3867L27.8371 37.9331L25.7645 37.6032L23.6556 37.4383H21.5103L19.365 37.6032L17.1833 37.9331L15.0017 38.4691L12.82 39.2113L10.6383 40.1597L10.5293 40.0773ZM10.5293 40.0773C9.76567 40.4484 8.89301 40.036 8.56576 39.1701C8.23851 38.3042 8.60212 37.3146 9.3657 36.9435L10.5293 40.1185V40.0773Z" fill="#F5F5F3"/>
<path d="M44.7076 33.1499L46.8166 35.6239C46.2348 36.2837 45.2531 36.2837 44.7076 35.5827C44.1259 34.8817 44.1622 33.8096 44.744 33.1499H44.7076ZM72.0874 25.2742L71.2511 25.1092L70.4148 24.9855L69.6149 24.9031L68.815 24.8618L68.015 24.8206H67.2151L66.4151 24.8618L65.6152 24.9031L64.8153 24.9855L64.0153 25.1092L63.2154 25.2742L62.4154 25.4391L61.6155 25.6453L60.8155 25.8927L60.0156 26.1401L59.2157 26.4287L58.4157 26.7586L57.6158 27.1297L56.8158 27.5008L56.0523 27.9132L55.2887 28.3667L54.5251 28.8615L53.7615 29.3976L52.9979 29.9336L52.2344 30.5109L51.4708 31.1294L50.7072 31.7892L49.9436 32.4901L49.18 33.1911L48.4165 33.9333L47.6529 34.7168L46.8893 35.5415L44.7804 33.0674L45.5803 32.2015L46.3802 31.3768L47.2165 30.5521L48.0528 29.7687L48.8891 29.0265L49.7255 28.3255L50.5618 27.6658L51.3981 27.0472L52.2344 26.4287L53.0707 25.8514L53.9433 25.3154L54.816 24.8206L55.6887 24.367L56.5613 23.9547L57.434 23.5423L58.3066 23.1712L59.1793 22.8414L60.052 22.5527L60.9246 22.3053L61.7973 22.0579L62.7063 21.8517L63.6153 21.6868L64.5244 21.5631L65.4334 21.4806L66.3424 21.3982L67.2514 21.3569H68.1605L69.0695 21.3982L69.9785 21.4806L70.8875 21.5631L71.7966 21.6868L72.7056 21.8517L72.1965 25.2329L72.0874 25.2742ZM72.0874 25.2742L72.5965 21.893C73.4328 22.0579 73.9782 22.9238 73.8328 23.8722C73.6873 24.8206 72.9237 25.4391 72.0874 25.2742Z" fill="#F5F5F3"/>
<path d="M44.6335 20.2025L46.9242 22.3879C46.3788 23.1301 45.4698 23.2126 44.8153 22.594C44.1971 21.9755 44.088 20.9034 44.6335 20.2025ZM58.1234 15.4193L57.7961 15.4605L57.4325 15.543L57.0689 15.6255L56.7053 15.7079L56.3417 15.8317L55.9781 15.9554L55.6145 16.0791L55.2509 16.2028L54.8873 16.3677L54.5236 16.5326L54.1237 16.6976L53.7237 16.8625L53.3237 17.0687L52.9601 17.2748L52.5965 17.481L52.2329 17.6872L51.8693 17.9346L51.5057 18.182L51.1421 18.4294L50.7785 18.6768L50.4149 18.9654L50.0512 19.2541L49.6876 19.5427L49.3604 19.8314L49.0331 20.12L48.7059 20.4086L48.3786 20.7385L48.0878 21.0684L47.7969 21.3983L47.506 21.7281L47.2515 22.058L46.9969 22.3879L44.7062 20.2025L45.0334 19.7901L45.3607 19.3778L45.6879 18.9654L46.0515 18.5943L46.4151 18.2232L46.7788 17.8521L47.1424 17.481L47.5423 17.1099L47.9423 16.78L48.3423 16.4502L48.7422 16.1203L49.1422 15.7904L49.5786 15.5018L50.0149 15.2131L50.4512 14.9245L50.8875 14.6771L51.3239 14.4297L51.7602 14.1823L52.1965 13.9349L52.6329 13.7287L53.0692 13.5225L53.5055 13.3164L53.9419 13.1514L54.3782 12.9865L54.8145 12.8216L55.2509 12.6566L55.6872 12.5329L56.1235 12.4092L56.5599 12.2855L56.9962 12.2031L57.4325 12.1206L57.8689 12.0381L58.2325 15.4193H58.1234ZM58.1234 15.4193L57.7598 12.0381C58.5961 11.9144 59.3233 12.6154 59.4324 13.5225C59.5415 14.4709 58.9597 15.2956 58.1234 15.4193Z" fill="#F5F5F3"/>
<path d="M44.903 66.4275L46.5029 63.5411C47.1938 64.0359 47.4119 65.108 46.9756 65.8914C46.5393 66.6749 45.5939 66.9223 44.903 66.4275ZM81.0095 40.0789L78.8278 39.1305L76.6462 38.3883L74.4645 37.8522L72.2828 37.5224L70.1376 37.3574H67.9923L65.8833 37.5224L63.8107 37.8522L61.8109 38.3058L59.8474 38.8831L57.9566 39.5841L56.1386 40.4088L54.3932 41.3159L52.757 42.3468L51.1935 43.4188L49.739 44.5734L48.3937 45.8104L47.1938 47.0887L46.1029 48.3669L45.1576 49.6864L44.3576 51.0059L43.7031 52.3254L43.2304 53.6037L42.9032 54.8819L42.7577 56.0777V57.2323L42.9032 58.3456L43.2304 59.4177L43.7395 60.4485L44.4303 61.4794L45.3394 62.469L46.5029 63.4174L44.903 66.3038L43.4486 65.108L42.2123 63.7885L41.2306 62.3453L40.5034 60.7784L40.0307 59.1703L39.8125 57.4797V55.7891L40.0307 54.0985L40.467 52.4079L41.0851 50.7585L41.8487 49.1504L42.7941 47.5835L43.8849 46.0578L45.1212 44.5734L46.4666 43.1302L47.9574 41.7695L49.5572 40.4912L51.2662 39.2954L53.0843 38.1821L54.975 37.1925L56.9749 36.2854L59.0475 35.5019L61.1927 34.8422L63.3744 34.3473L65.6288 34.0175L67.9195 33.8525H70.2466L72.6101 34.0175L75.0099 34.3886L77.4097 34.9659L79.8096 35.7493L82.2094 36.7802L81.0458 39.9552L81.0095 40.0789ZM81.0095 40.0789L82.173 36.9039C82.9366 37.275 83.3002 38.2646 82.973 39.1305C82.6457 39.9964 81.7731 40.4088 81.0095 40.0377V40.0789Z" fill="#F5F5F3"/>
</svg>
